# xmcd
#
# Track frame offsets: 
#        150
#        6397
#        21345
#        42374
#        64666
#        89566
#        112213
#        129950
#        158485
#        183187
#        200055
#        219706
#        249010
#        264674
#        280404
#        299684
#        318782
#        333979
#
# Disc length: 4540 seconds
#
# Revision: 0
# Processed by: cddbd v1.5.2PL0 Copyright (c) Steve Scherf et al.
# Submitted via: ExactAudioCopy v0.99pb5
#
DISCID=0f11ba12
DTITLE=Bobby Dean Blackburn - Don't Ask...Don't Tell
DYEAR=2010
DGENRE=Blues
TTITLE0=Are You Ready
TTITLE1=Baby What You Want Me To Do
TTITLE2=24 Hours Of The Day
TTITLE3=Don't Ask Don't Tell
TTITLE4=Kitchen Blues (feat. Liberty Silver)
TTITLE5=Why I Sing The Blues
TTITLE6=Money Honey
TTITLE7=There's Something On Your Mind
TTITLE8=Everyday I Have The Blues
TTITLE9=Mojo
TTITLE10=C.C. Rider
TTITLE11=Twilight Time
TTITLE12=Something You Got
TTITLE13=Please Don't Leave Me
TTITLE14=Send Me Some Lovin'
TTITLE15=I Got A Right
TTITLE16=Going To The River
TTITLE17=Are You Ready (reprise)
EXTD=
EXTT0=
EXTT1=
EXTT2=
EXTT3=
EXTT4=
EXTT5=
EXTT6=
EXTT7=
EXTT8=
EXTT9=
EXTT10=
EXTT11=
EXTT12=
EXTT13=
EXTT14=
EXTT15=
EXTT16=
EXTT17=
PLAYORDER=
